<?xml version="1.0" encoding="UTF-8" ?>
<!DOCTYPE svg PUBLIC "-//W3C//DTD SVG 1.1//EN" "http://www.w3.org/Graphics/SVG/1.1/DTD/svg11.dtd">
<svg width="50pt" height="50pt" viewBox="0 0 50 50" version="1.1" xmlns="http://www.w3.org/2000/svg">
<g id="#000000ff">
<path fill="#000000" opacity="1.00" d=" M 0.00 0.00 L 50.00 0.00 L 50.00 50.00 L 0.00 50.00 L 0.00 0.00 M 22.79 5.00 C 19.90 9.92 17.93 15.30 15.46 20.42 C 11.99 28.59 7.73 36.45 4.82 44.84 C 5.67 44.87 7.35 44.93 8.19 44.96 C 10.94 40.43 12.65 35.39 15.08 30.70 C 21.37 30.96 27.67 30.80 33.96 30.81 C 36.39 35.45 38.08 40.46 40.80 44.96 C 41.64 44.93 43.33 44.86 44.18 44.83 C 42.87 40.43 40.66 36.39 38.85 32.19 C 34.56 23.16 30.94 13.80 26.19 5.00 C 25.34 5.00 23.64 5.00 22.79 5.00 Z" />
<path fill="#000000" opacity="1.00" d=" M 24.25 13.80 C 26.44 17.23 27.27 21.31 28.96 24.98 C 25.99 25.01 23.01 25.00 20.04 24.99 C 21.51 21.28 22.97 17.58 24.25 13.80 Z" />
</g>
<g id="#ffffffff">
<path fill="#ffffff" opacity="1.00" d=" M 22.79 5.00 C 23.64 5.00 25.34 5.00 26.19 5.00 C 30.94 13.80 34.56 23.16 38.85 32.19 C 40.66 36.39 42.87 40.43 44.18 44.83 C 43.33 44.86 41.64 44.93 40.80 44.96 C 38.08 40.46 36.39 35.45 33.96 30.81 C 27.67 30.80 21.37 30.96 15.08 30.70 C 12.65 35.39 10.94 40.43 8.19 44.96 C 7.35 44.93 5.67 44.87 4.82 44.84 C 7.73 36.45 11.99 28.59 15.46 20.42 C 17.93 15.30 19.90 9.92 22.79 5.00 M 24.25 13.80 C 22.97 17.58 21.51 21.28 20.04 24.99 C 23.01 25.00 25.99 25.01 28.96 24.98 C 27.27 21.31 26.44 17.23 24.25 13.80 Z" />
</g>
</svg>
