<?xml version="1.0" encoding="UTF-8" ?>
<!DOCTYPE svg PUBLIC "-//W3C//DTD SVG 1.1//EN" "http://www.w3.org/Graphics/SVG/1.1/DTD/svg11.dtd">
<svg width="50pt" height="50pt" viewBox="0 0 50 50" version="1.1" xmlns="http://www.w3.org/2000/svg">
<g id="#000000ff">
<path fill="#000000" opacity="1.00" d=" M 0.00 0.00 L 50.00 0.00 L 50.00 50.00 L 0.00 50.00 L 0.00 0.00 M 23.47 6.32 C 19.20 16.10 14.68 25.76 10.32 35.50 C 9.12 38.31 7.56 40.98 6.84 43.98 C 7.48 43.89 8.75 43.72 9.39 43.64 C 11.48 39.47 13.22 35.14 15.23 30.93 C 21.66 31.16 28.10 30.80 34.52 31.14 C 36.41 35.65 38.41 40.14 40.55 44.53 C 41.21 44.64 42.52 44.85 43.17 44.95 C 42.73 43.44 42.23 41.95 41.53 40.54 C 36.14 29.04 31.21 17.32 25.63 5.90 C 25.09 6.01 24.01 6.22 23.47 6.32 Z" />
<path fill="#000000" opacity="1.00" d=" M 16.45 28.17 C 19.23 22.04 22.05 15.92 24.76 9.76 C 27.49 15.91 30.29 22.03 33.07 28.16 C 27.53 28.16 21.99 28.14 16.45 28.17 Z" />
</g>
<g id="#fcfcfcff">
<path fill="#fcfcfc" opacity="1.00" d=" M 23.47 6.32 C 24.01 6.22 25.09 6.01 25.63 5.90 C 31.21 17.32 36.14 29.04 41.53 40.54 C 42.23 41.95 42.73 43.44 43.17 44.95 C 42.52 44.85 41.21 44.64 40.55 44.53 C 38.41 40.14 36.41 35.65 34.52 31.14 C 28.10 30.80 21.66 31.16 15.23 30.93 C 13.22 35.14 11.48 39.47 9.39 43.64 C 8.75 43.72 7.48 43.89 6.84 43.98 C 7.56 40.98 9.12 38.31 10.32 35.50 C 14.68 25.76 19.20 16.10 23.47 6.32 M 16.45 28.17 C 21.99 28.14 27.53 28.16 33.07 28.16 C 30.29 22.03 27.49 15.91 24.76 9.76 C 22.05 15.92 19.23 22.04 16.45 28.17 Z" />
</g>
</svg>
