<?xml version="1.0" encoding="UTF-8" ?>
<!DOCTYPE svg PUBLIC "-//W3C//DTD SVG 1.1//EN" "http://www.w3.org/Graphics/SVG/1.1/DTD/svg11.dtd">
<svg width="50pt" height="50pt" viewBox="0 0 50 50" version="1.1" xmlns="http://www.w3.org/2000/svg">
<g id="#000000ff">
<path fill="#000000" opacity="1.00" d=" M 0.00 0.00 L 50.00 0.00 L 50.00 50.00 L 0.00 50.00 L 0.00 0.00 M 5.06 6.09 C 5.03 7.70 5.03 9.30 5.05 10.90 C 18.35 11.06 31.65 11.06 44.94 10.91 C 44.97 9.30 44.97 7.70 44.95 6.09 C 31.65 5.94 18.35 5.94 5.06 6.09 M 5.06 23.09 C 5.03 24.70 5.03 26.30 5.05 27.91 C 18.35 28.06 31.65 28.06 44.94 27.91 C 44.97 26.30 44.97 24.70 44.95 23.09 C 31.65 22.94 18.35 22.94 5.06 23.09 M 5.06 40.09 C 5.03 41.70 5.03 43.30 5.06 44.91 C 12.02 45.06 18.98 45.06 25.94 44.91 C 25.97 43.30 25.97 41.70 25.94 40.09 C 18.98 39.94 12.02 39.94 5.06 40.09 Z" />
</g>
<g id="#ffffffff">
<path fill="#ffffff" opacity="1.00" d=" M 5.06 6.09 C 18.35 5.94 31.65 5.94 44.95 6.09 C 44.97 7.70 44.97 9.30 44.94 10.91 C 31.65 11.06 18.35 11.06 5.05 10.90 C 5.03 9.30 5.03 7.70 5.06 6.09 Z" />
<path fill="#ffffff" opacity="1.00" d=" M 5.06 23.09 C 18.35 22.94 31.65 22.94 44.95 23.09 C 44.97 24.70 44.97 26.30 44.94 27.91 C 31.65 28.06 18.35 28.06 5.05 27.91 C 5.03 26.30 5.03 24.70 5.06 23.09 Z" />
<path fill="#ffffff" opacity="1.00" d=" M 5.06 40.09 C 12.02 39.94 18.98 39.94 25.94 40.09 C 25.97 41.70 25.97 43.30 25.94 44.91 C 18.98 45.06 12.02 45.06 5.06 44.91 C 5.03 43.30 5.03 41.70 5.06 40.09 Z" />
</g>
</svg>
