<?xml version="1.0" encoding="UTF-8" ?>
<!DOCTYPE svg PUBLIC "-//W3C//DTD SVG 1.1//EN" "http://www.w3.org/Graphics/SVG/1.1/DTD/svg11.dtd">
<svg width="50pt" height="50pt" viewBox="0 0 50 50" version="1.1" xmlns="http://www.w3.org/2000/svg">
<g id="#000000ff">
<path fill="#000000" opacity="1.00" d=" M 0.00 0.00 L 50.00 0.00 L 50.00 50.00 L 0.00 50.00 L 0.00 0.00 M 6.06 7.08 C 6.06 7.79 6.06 9.21 6.06 9.92 C 18.69 10.05 31.31 10.05 43.94 9.92 C 43.94 9.21 43.94 7.79 43.94 7.08 C 31.31 6.95 18.69 6.95 6.06 7.08 M 6.06 24.08 C 6.06 24.79 6.06 26.21 6.06 26.92 C 18.69 27.05 31.31 27.05 43.94 26.92 C 43.94 26.21 43.94 24.79 43.94 24.08 C 31.32 23.94 18.69 23.95 6.06 24.08 M 6.07 41.08 C 6.07 41.79 6.07 43.21 6.07 43.92 C 12.35 44.05 18.64 44.05 24.93 43.92 C 24.93 43.21 24.94 41.79 24.94 41.08 C 18.65 40.95 12.36 40.95 6.07 41.08 Z" />
</g>
<g id="#ffffffff">
<path fill="#ffffff" opacity="1.00" d=" M 6.06 7.08 C 18.69 6.95 31.31 6.95 43.94 7.08 C 43.94 7.79 43.94 9.21 43.94 9.92 C 31.31 10.05 18.69 10.05 6.06 9.92 C 6.06 9.21 6.06 7.79 6.06 7.08 Z" />
<path fill="#ffffff" opacity="1.00" d=" M 6.06 24.08 C 18.69 23.95 31.32 23.94 43.94 24.08 C 43.94 24.79 43.94 26.21 43.94 26.92 C 31.31 27.05 18.69 27.05 6.06 26.92 C 6.06 26.21 6.06 24.79 6.06 24.08 Z" />
<path fill="#ffffff" opacity="1.00" d=" M 6.07 41.08 C 12.36 40.95 18.65 40.95 24.94 41.08 C 24.94 41.79 24.93 43.21 24.93 43.92 C 18.64 44.05 12.35 44.05 6.07 43.92 C 6.07 43.21 6.07 41.79 6.07 41.08 Z" />
</g>
</svg>
