<?xml version="1.0" encoding="UTF-8" ?>
<!DOCTYPE svg PUBLIC "-//W3C//DTD SVG 1.1//EN" "http://www.w3.org/Graphics/SVG/1.1/DTD/svg11.dtd">
<svg width="50pt" height="50pt" viewBox="0 0 50 50" version="1.1" xmlns="http://www.w3.org/2000/svg">
<g id="#000000ff">
<path fill="#000000" opacity="1.00" d=" M 0.00 0.00 L 50.00 0.00 L 50.00 50.00 L 0.00 50.00 L 0.00 0.00 M 21.49 1.64 L 21.52 2.52 L 20.54 2.56 C 20.60 5.23 20.90 7.94 20.39 10.58 C 19.70 11.30 18.63 11.37 17.75 11.74 C 15.84 9.98 14.00 8.15 12.37 6.13 C 9.25 6.99 7.56 9.96 5.43 12.13 C 7.40 14.07 9.36 16.01 11.20 18.07 C 10.87 19.10 10.51 20.12 10.11 21.12 C 7.27 21.47 4.42 21.28 1.57 21.38 C 1.47 24.10 1.45 26.81 1.55 29.53 C 2.14 29.71 3.31 30.07 3.89 30.24 C 6.11 29.54 8.39 30.04 10.60 30.47 C 11.95 34.43 7.79 36.67 5.38 38.96 C 7.36 41.35 9.54 43.56 11.96 45.50 C 13.69 43.25 15.70 41.22 17.92 39.44 C 18.58 39.77 19.90 40.44 20.56 40.77 C 20.66 43.57 20.64 46.38 20.66 49.18 C 23.57 49.29 26.49 49.30 29.40 49.20 C 29.46 46.42 29.43 43.64 29.53 40.87 C 30.18 40.50 31.47 39.76 32.12 39.40 C 34.36 41.17 36.36 43.22 38.15 45.44 C 40.58 43.53 42.76 41.34 44.72 38.95 C 42.47 36.54 37.86 34.28 39.63 30.32 C 42.37 30.03 45.21 30.59 47.89 29.95 C 48.96 27.24 48.24 24.17 48.31 21.32 C 45.52 21.29 42.71 21.51 39.95 21.04 C 37.34 17.15 42.68 14.80 44.69 12.14 C 42.61 10.19 41.10 7.17 38.26 6.30 C 35.89 7.55 34.43 10.31 32.10 11.81 C 31.45 11.42 30.15 10.65 29.50 10.27 C 29.43 7.43 29.48 4.58 29.35 1.74 C 26.73 1.65 24.11 1.64 21.49 1.64 Z" />
<path fill="#000000" opacity="1.00" d=" M 23.82 16.61 C 29.02 16.25 34.22 20.65 33.73 26.04 C 33.73 29.97 30.61 33.03 27.16 34.40 C 25.73 34.39 24.30 34.38 22.87 34.37 C 19.12 32.84 15.81 29.23 16.39 24.92 C 16.47 20.73 20.17 17.87 23.82 16.61 Z" />
</g>
<g id="#ffffffff">
<path fill="#ffffff" opacity="1.00" d=" M 21.49 1.64 C 24.11 1.64 26.73 1.65 29.35 1.74 C 29.48 4.58 29.43 7.43 29.50 10.27 C 30.15 10.65 31.45 11.42 32.10 11.81 C 34.43 10.31 35.89 7.55 38.26 6.30 C 41.10 7.17 42.61 10.19 44.69 12.14 C 42.68 14.80 37.34 17.15 39.95 21.04 C 42.71 21.51 45.52 21.29 48.31 21.32 C 48.24 24.17 48.96 27.24 47.89 29.95 C 45.21 30.59 42.37 30.03 39.63 30.32 C 37.86 34.28 42.47 36.54 44.72 38.95 C 42.76 41.34 40.58 43.53 38.15 45.44 C 36.36 43.22 34.36 41.17 32.12 39.40 C 31.47 39.76 30.18 40.50 29.53 40.87 C 29.43 43.64 29.46 46.42 29.40 49.20 C 26.49 49.30 23.57 49.29 20.66 49.18 C 20.64 46.38 20.66 43.57 20.56 40.77 C 19.90 40.44 18.58 39.77 17.92 39.44 C 15.70 41.22 13.69 43.25 11.96 45.50 C 9.54 43.56 7.36 41.35 5.38 38.96 C 7.79 36.67 11.95 34.43 10.60 30.47 C 8.39 30.04 6.11 29.54 3.89 30.24 C 3.31 30.07 2.14 29.71 1.55 29.53 C 1.45 26.81 1.47 24.10 1.57 21.38 C 4.42 21.28 7.27 21.47 10.11 21.12 C 10.51 20.12 10.87 19.10 11.20 18.07 C 9.36 16.01 7.40 14.07 5.43 12.13 C 7.56 9.96 9.25 6.99 12.37 6.13 C 14.00 8.15 15.84 9.98 17.75 11.74 C 18.63 11.37 19.70 11.30 20.39 10.58 C 20.90 7.94 20.60 5.23 20.54 2.56 L 21.52 2.52 L 21.49 1.64 M 23.82 16.61 C 20.17 17.87 16.47 20.73 16.39 24.92 C 15.81 29.23 19.12 32.84 22.87 34.37 C 24.30 34.38 25.73 34.39 27.16 34.40 C 30.61 33.03 33.73 29.97 33.73 26.04 C 34.22 20.65 29.02 16.25 23.82 16.61 Z" />
</g>
</svg>
