<?xml version="1.0" encoding="UTF-8" ?>
<!DOCTYPE svg PUBLIC "-//W3C//DTD SVG 1.1//EN" "http://www.w3.org/Graphics/SVG/1.1/DTD/svg11.dtd">
<svg width="50pt" height="50pt" viewBox="0 0 50 50" version="1.1" xmlns="http://www.w3.org/2000/svg">
<g id="#000000ff">
<path fill="#000000" opacity="1.00" d=" M 0.00 0.00 L 50.00 0.00 L 50.00 50.00 L 0.00 50.00 L 0.00 0.00 M 19.28 11.30 C 16.61 9.63 15.02 5.98 11.78 5.56 C 9.28 6.94 7.43 9.16 5.59 11.27 C 5.60 11.93 5.63 13.24 5.64 13.90 C 7.51 15.56 9.28 17.33 10.88 19.25 C 8.16 21.14 4.75 20.27 1.67 20.45 C 1.46 23.86 1.46 27.28 1.67 30.70 C 4.78 30.74 8.01 30.40 10.92 31.76 C 9.34 33.77 7.53 35.60 5.62 37.31 C 5.61 37.99 5.60 39.36 5.59 40.04 C 7.30 41.96 9.14 43.78 11.06 45.49 C 11.69 45.47 12.96 45.42 13.59 45.40 C 15.33 43.44 17.19 41.58 19.23 39.93 C 20.07 42.99 19.84 46.17 19.85 49.30 C 23.35 49.54 26.86 49.54 30.37 49.33 C 30.97 46.49 29.00 42.20 31.78 40.38 C 33.62 41.92 35.13 43.80 36.92 45.40 C 40.29 46.05 42.40 42.44 44.37 40.26 C 45.94 36.88 41.92 35.13 40.14 32.95 C 40.24 32.41 40.44 31.31 40.54 30.77 C 43.21 30.74 45.88 30.73 48.55 30.73 C 48.74 27.30 48.74 23.87 48.57 20.44 C 45.85 20.44 43.13 20.42 40.41 20.36 C 40.36 19.80 40.27 18.68 40.23 18.13 C 41.66 16.73 43.13 15.37 44.62 14.04 C 44.61 13.01 44.59 11.98 44.58 10.96 C 42.79 8.96 40.86 7.10 38.86 5.32 C 35.49 6.17 33.85 9.61 30.84 11.14 C 30.21 8.06 30.40 4.92 30.35 1.80 C 26.98 1.64 23.60 1.61 20.23 1.77 C 20.03 4.96 19.85 8.15 19.28 11.30 Z" />
<path fill="#000000" opacity="1.00" d=" M 22.17 3.68 C 24.24 3.66 26.31 3.67 28.39 3.70 C 28.31 6.16 28.30 8.62 28.42 11.08 C 29.73 11.78 31.00 12.53 32.28 13.29 C 34.32 11.47 36.26 9.56 38.11 7.55 C 39.80 9.11 41.69 10.58 42.71 12.70 C 40.77 14.66 38.86 16.66 37.24 18.90 C 38.10 20.07 38.97 21.23 39.83 22.40 C 42.13 22.42 44.42 22.42 46.71 22.42 C 46.72 24.54 46.71 26.66 46.68 28.77 C 44.39 28.79 42.10 28.79 39.81 28.79 C 39.01 29.84 38.20 30.88 37.50 32.00 C 38.33 34.83 40.91 36.60 42.89 38.60 C 41.45 40.43 39.85 42.14 38.10 43.68 C 36.23 41.68 34.27 39.78 32.20 37.98 C 30.65 38.92 28.04 39.52 28.37 41.85 C 28.23 43.73 28.34 45.61 28.38 47.48 C 26.32 47.52 24.25 47.54 22.18 47.52 C 22.41 44.03 22.75 38.67 18.06 38.19 C 15.86 39.73 14.10 41.80 12.18 43.66 C 10.51 42.09 8.89 40.47 7.34 38.78 C 9.31 36.79 11.29 34.81 13.07 32.65 C 12.25 31.35 11.40 30.06 10.56 28.77 C 8.25 28.78 5.93 28.79 3.61 28.80 C 3.57 26.67 3.57 24.54 3.59 22.41 C 5.96 22.42 8.33 22.42 10.70 22.40 C 11.42 21.05 12.92 19.83 12.67 18.16 C 11.20 16.05 9.24 14.36 7.40 12.59 C 8.87 10.76 10.54 9.11 12.32 7.59 C 14.20 9.58 16.15 11.49 18.15 13.35 C 19.54 12.40 21.65 11.83 21.96 9.92 C 22.48 7.89 22.11 5.75 22.17 3.68 M 21.61 16.71 C 18.04 18.71 14.79 22.67 15.58 27.00 C 16.64 30.87 19.82 34.36 23.82 35.21 C 29.25 36.05 34.20 31.13 34.81 25.97 C 34.81 19.66 27.77 13.86 21.61 16.71 Z" />
<path fill="#000000" opacity="1.00" d=" M 17.59 26.00 C 17.75 21.35 22.84 16.62 27.55 18.64 C 30.34 19.92 32.57 22.76 32.68 25.89 C 32.14 29.90 28.68 32.51 25.01 33.52 C 21.52 32.32 18.29 29.82 17.59 26.00 Z" />
</g>
<g id="#ffffffff">
<path fill="#ffffff" opacity="1.00" d=" M 19.28 11.30 C 19.85 8.15 20.03 4.96 20.23 1.77 C 23.60 1.61 26.98 1.64 30.35 1.80 C 30.40 4.92 30.21 8.06 30.84 11.14 C 33.85 9.61 35.49 6.17 38.86 5.32 C 40.86 7.10 42.79 8.96 44.58 10.96 C 44.59 11.98 44.61 13.01 44.62 14.04 C 43.13 15.37 41.66 16.73 40.23 18.13 C 40.27 18.68 40.36 19.80 40.41 20.36 C 43.13 20.42 45.85 20.44 48.57 20.44 C 48.74 23.87 48.74 27.30 48.55 30.73 C 45.88 30.73 43.21 30.74 40.54 30.77 C 40.44 31.31 40.24 32.41 40.14 32.95 C 41.92 35.13 45.94 36.88 44.37 40.26 C 42.40 42.44 40.29 46.05 36.92 45.40 C 35.13 43.80 33.62 41.92 31.78 40.38 C 29.00 42.20 30.97 46.49 30.37 49.33 C 26.86 49.54 23.35 49.54 19.85 49.30 C 19.84 46.17 20.07 42.99 19.23 39.93 C 17.19 41.58 15.33 43.44 13.59 45.40 C 12.96 45.42 11.69 45.47 11.06 45.49 C 9.14 43.78 7.30 41.96 5.59 40.04 C 5.60 39.36 5.61 37.99 5.62 37.31 C 7.53 35.60 9.34 33.77 10.92 31.76 C 8.01 30.40 4.78 30.74 1.67 30.70 C 1.46 27.28 1.46 23.86 1.67 20.45 C 4.75 20.27 8.16 21.14 10.88 19.25 C 9.28 17.33 7.51 15.56 5.64 13.90 C 5.63 13.24 5.60 11.93 5.59 11.27 C 7.43 9.16 9.28 6.94 11.78 5.56 C 15.02 5.98 16.61 9.63 19.28 11.30 M 22.17 3.68 C 22.11 5.75 22.48 7.89 21.96 9.92 C 21.65 11.83 19.54 12.40 18.15 13.35 C 16.15 11.49 14.20 9.58 12.32 7.59 C 10.54 9.11 8.87 10.76 7.40 12.59 C 9.24 14.36 11.20 16.05 12.67 18.16 C 12.92 19.83 11.42 21.05 10.70 22.40 C 8.33 22.42 5.96 22.42 3.59 22.41 C 3.57 24.54 3.57 26.67 3.61 28.80 C 5.93 28.79 8.25 28.78 10.56 28.77 C 11.40 30.06 12.25 31.35 13.07 32.65 C 11.29 34.81 9.31 36.79 7.34 38.78 C 8.89 40.47 10.51 42.09 12.18 43.66 C 14.10 41.80 15.86 39.73 18.06 38.19 C 22.75 38.67 22.41 44.03 22.18 47.52 C 24.25 47.54 26.32 47.52 28.38 47.48 C 28.34 45.61 28.23 43.73 28.37 41.85 C 28.04 39.52 30.65 38.92 32.20 37.98 C 34.27 39.78 36.23 41.68 38.10 43.68 C 39.85 42.14 41.45 40.43 42.89 38.60 C 40.91 36.60 38.33 34.83 37.50 32.00 C 38.20 30.88 39.01 29.84 39.81 28.79 C 42.10 28.79 44.39 28.79 46.68 28.77 C 46.71 26.66 46.72 24.54 46.71 22.42 C 44.42 22.42 42.13 22.42 39.83 22.40 C 38.97 21.23 38.10 20.07 37.24 18.90 C 38.86 16.66 40.77 14.66 42.71 12.70 C 41.69 10.58 39.80 9.11 38.11 7.55 C 36.26 9.56 34.32 11.47 32.28 13.29 C 31.00 12.53 29.73 11.78 28.42 11.08 C 28.30 8.62 28.31 6.16 28.39 3.70 C 26.31 3.67 24.24 3.66 22.17 3.68 Z" />
</g>
<g id="#fbfbfbff">
<path fill="#fbfbfb" opacity="1.00" d=" M 21.61 16.71 C 27.77 13.86 34.81 19.66 34.81 25.97 C 34.20 31.13 29.25 36.05 23.82 35.21 C 19.82 34.36 16.64 30.87 15.58 27.00 C 14.79 22.67 18.04 18.71 21.61 16.71 M 17.59 26.00 C 18.29 29.82 21.52 32.32 25.01 33.52 C 28.68 32.51 32.14 29.90 32.68 25.89 C 32.57 22.76 30.34 19.92 27.55 18.64 C 22.84 16.62 17.75 21.35 17.59 26.00 Z" />
</g>
</svg>
