<?xml version="1.0" encoding="UTF-8" ?>
<!DOCTYPE svg PUBLIC "-//W3C//DTD SVG 1.1//EN" "http://www.w3.org/Graphics/SVG/1.1/DTD/svg11.dtd">
<svg width="27pt" height="29pt" viewBox="0 0 27 29" version="1.1" xmlns="http://www.w3.org/2000/svg">
<g id="#ffffffff">
<path fill="#ffffff" opacity="1.00" d=" M 10.02 0.00 L 10.17 0.00 C 15.76 2.21 21.42 4.19 27.00 6.41 L 27.00 25.06 C 24.04 23.81 21.00 22.77 18.00 21.62 C 18.01 17.53 18.00 13.45 18.00 9.36 C 15.33 8.36 12.66 7.36 9.99 6.35 C 10.00 4.24 10.01 2.12 10.02 0.00 Z" />
<path fill="#ffffff" opacity="1.00" d=" M 2.54 5.20 C 7.19 6.93 11.82 8.66 16.45 10.42 C 16.45 15.55 16.48 20.68 16.43 25.80 C 11.82 24.07 7.21 22.32 2.58 20.63 C 2.51 15.48 2.56 10.34 2.54 5.20 M 4.88 9.11 C 5.01 9.42 5.28 10.03 5.42 10.34 C 8.18 11.50 11.09 12.30 14.01 12.98 C 13.92 12.65 13.72 11.99 13.63 11.66 C 10.80 10.55 7.89 9.57 4.88 9.11 M 4.91 13.08 C 5.04 13.40 5.29 14.03 5.41 14.34 C 8.21 15.48 11.12 16.38 14.10 16.92 C 13.97 16.60 13.71 15.97 13.57 15.65 C 10.78 14.53 7.88 13.62 4.91 13.08 M 4.90 17.14 C 5.30 19.50 8.24 19.30 10.00 19.94 C 9.86 17.43 6.70 17.68 4.90 17.14 Z" />
</g>
<g id="#070707f5">
<path fill="#070707" opacity="0.96" d=" M 0.95 3.02 C 3.98 4.09 7.00 5.19 9.99 6.35 C 12.66 7.36 15.33 8.36 18.00 9.36 C 18.00 13.45 18.01 17.53 18.00 21.62 C 18.00 23.76 18.00 25.89 18.00 28.03 C 12.34 25.91 6.69 23.76 1.02 21.67 C 0.95 15.45 1.05 9.23 0.95 3.02 M 2.54 5.20 C 2.56 10.34 2.51 15.48 2.58 20.63 C 7.21 22.32 11.82 24.07 16.43 25.80 C 16.48 20.68 16.45 15.55 16.45 10.42 C 11.82 8.66 7.19 6.93 2.54 5.20 Z" />
<path fill="#070707" opacity="0.96" d=" M 4.88 9.11 C 7.89 9.57 10.80 10.55 13.63 11.66 C 13.72 11.99 13.92 12.65 14.01 12.98 C 11.09 12.30 8.18 11.50 5.42 10.34 C 5.28 10.03 5.01 9.42 4.88 9.11 Z" />
<path fill="#070707" opacity="0.96" d=" M 4.91 13.08 C 7.88 13.62 10.78 14.53 13.57 15.65 C 13.71 15.97 13.97 16.60 14.10 16.92 C 11.12 16.38 8.21 15.48 5.41 14.34 C 5.29 14.03 5.04 13.40 4.91 13.08 Z" />
<path fill="#070707" opacity="0.96" d=" M 4.90 17.14 C 6.70 17.68 9.86 17.43 10.00 19.94 C 8.24 19.30 5.30 19.50 4.90 17.14 Z" />
</g>
</svg>
