<?xml version="1.0" encoding="UTF-8" ?>
<!DOCTYPE svg PUBLIC "-//W3C//DTD SVG 1.1//EN" "http://www.w3.org/Graphics/SVG/1.1/DTD/svg11.dtd">
<svg width="27pt" height="29pt" viewBox="0 0 27 29" version="1.1" xmlns="http://www.w3.org/2000/svg">
<g id="#ffffffff">
<path fill="#ffffff" opacity="1.00" d=" M 10.00 0.00 L 10.06 0.00 C 15.70 2.15 21.38 4.19 27.00 6.41 L 27.00 25.06 C 24.04 23.81 21.00 22.77 18.00 21.61 C 18.00 23.75 18.00 25.88 18.00 28.01 C 12.34 25.88 6.67 23.75 1.01 21.63 C 0.99 15.42 1.00 9.20 1.00 2.99 C 3.99 4.13 6.99 5.25 10.00 6.36 C 10.00 4.24 10.00 2.12 10.00 0.00 M 11.51 2.15 C 11.53 3.75 11.55 5.35 11.56 6.96 C 13.70 7.77 15.83 8.57 17.98 9.36 C 18.01 12.91 18.01 16.46 18.00 20.01 C 20.49 20.95 22.98 21.90 25.47 22.83 C 25.46 17.66 25.50 12.50 25.44 7.34 C 20.77 5.68 16.16 3.87 11.51 2.15 M 2.53 5.18 C 2.54 10.33 2.50 15.47 2.55 20.62 C 7.20 22.34 11.83 24.10 16.47 25.82 C 16.49 20.71 16.43 15.59 16.51 10.48 C 11.89 8.62 7.19 6.94 2.53 5.18 Z" />
<path fill="#ffffff" opacity="1.00" d=" M 5.08 9.01 C 7.98 9.77 10.89 10.54 13.65 11.69 C 13.75 12.00 13.95 12.62 14.05 12.92 C 11.07 12.35 8.16 11.41 5.33 10.31 C 5.27 9.99 5.15 9.33 5.08 9.01 Z" />
<path fill="#ffffff" opacity="1.00" d=" M 4.99 13.06 C 7.95 13.68 10.85 14.57 13.66 15.69 C 13.74 16.00 13.92 16.64 14.01 16.95 C 11.06 16.31 8.15 15.44 5.35 14.31 C 5.26 13.99 5.08 13.37 4.99 13.06 Z" />
<path fill="#ffffff" opacity="1.00" d=" M 5.00 17.11 C 6.69 17.75 9.90 17.47 9.99 19.92 C 8.31 19.24 5.14 19.53 5.00 17.11 Z" />
</g>
<g id="#000000ff">
<path fill="#000000" opacity="1.00" d=" M 11.51 2.15 C 16.16 3.87 20.77 5.68 25.44 7.34 C 25.50 12.50 25.46 17.66 25.47 22.83 C 22.98 21.90 20.49 20.95 18.00 20.01 C 18.01 16.46 18.01 12.91 17.98 9.36 C 15.83 8.57 13.70 7.77 11.56 6.96 C 11.55 5.35 11.53 3.75 11.51 2.15 Z" />
<path fill="#000000" opacity="1.00" d=" M 2.53 5.18 C 7.19 6.94 11.89 8.62 16.51 10.48 C 16.43 15.59 16.49 20.71 16.47 25.82 C 11.83 24.10 7.20 22.34 2.55 20.62 C 2.50 15.47 2.54 10.33 2.53 5.18 M 5.08 9.01 C 5.15 9.33 5.27 9.99 5.33 10.31 C 8.16 11.41 11.07 12.35 14.05 12.92 C 13.95 12.62 13.75 12.00 13.65 11.69 C 10.89 10.54 7.98 9.77 5.08 9.01 M 4.99 13.06 C 5.08 13.37 5.26 13.99 5.35 14.31 C 8.15 15.44 11.06 16.31 14.01 16.95 C 13.92 16.64 13.74 16.00 13.66 15.69 C 10.85 14.57 7.95 13.68 4.99 13.06 M 5.00 17.11 C 5.14 19.53 8.31 19.24 9.99 19.92 C 9.90 17.47 6.69 17.75 5.00 17.11 Z" />
</g>
</svg>
