<?xml version="1.0" encoding="UTF-8" ?>
<!DOCTYPE svg PUBLIC "-//W3C//DTD SVG 1.1//EN" "http://www.w3.org/Graphics/SVG/1.1/DTD/svg11.dtd">
<svg width="55pt" height="81pt" viewBox="0 0 72 81" version="1.1" xmlns="http://www.w3.org/2000/svg">
<g id="#ffffffff">
<path fill="#ffffff" opacity="1.00" d=" M 34.34 1.03 C 45.99 7.51 57.44 14.37 69.00 21.01 L 69.00 60.96 C 57.58 67.71 46.01 74.21 34.61 81.00 L 34.38 81.00 C 22.97 74.29 11.54 67.59 0.00 61.11 L 0.00 21.04 C 11.41 14.30 22.96 7.80 34.34 1.03 M 29.17 27.19 C 25.23 29.62 23.53 34.46 24.18 38.94 C 25.63 39.09 27.09 39.15 28.55 39.11 C 28.56 35.91 29.17 32.06 32.52 30.66 C 35.28 29.79 38.87 29.76 41.02 32.01 C 43.54 34.58 43.41 39.35 40.51 41.59 C 38.19 43.68 34.83 42.99 31.98 43.19 C 31.81 46.38 31.78 49.58 32.00 52.76 C 33.56 52.85 35.12 52.82 36.68 52.73 C 36.72 51.15 36.69 49.57 36.73 47.99 C 44.19 47.64 50.24 38.93 46.56 32.06 C 43.83 25.53 34.91 23.26 29.17 27.19 M 32.55 56.59 C 30.07 58.26 32.16 62.41 34.94 61.67 C 36.32 61.45 36.74 59.98 37.46 59.01 C 37.05 56.79 34.59 55.05 32.55 56.59 Z" />
</g>
<g id="#000000ff">
<path fill="#000000" opacity="1.00" d=" M 29.17 27.19 C 34.91 23.26 43.83 25.53 46.56 32.06 C 50.24 38.93 44.19 47.64 36.73 47.99 C 36.69 49.57 36.72 51.15 36.68 52.73 C 35.12 52.82 33.56 52.85 32.00 52.76 C 31.78 49.58 31.81 46.38 31.98 43.19 C 34.83 42.99 38.19 43.68 40.51 41.59 C 43.41 39.35 43.54 34.58 41.02 32.01 C 38.87 29.76 35.28 29.79 32.52 30.66 C 29.17 32.06 28.56 35.91 28.55 39.11 C 27.09 39.15 25.63 39.09 24.18 38.94 C 23.53 34.46 25.23 29.62 29.17 27.19 Z" />
<path fill="#000000" opacity="1.00" d=" M 32.55 56.59 C 34.59 55.05 37.05 56.79 37.46 59.01 C 36.74 59.98 36.32 61.45 34.94 61.67 C 32.16 62.41 30.07 58.26 32.55 56.59 Z" />
</g>
</svg>
