<?xml version="1.0" encoding="UTF-8" ?>
<!DOCTYPE svg PUBLIC "-//W3C//DTD SVG 1.1//EN" "http://www.w3.org/Graphics/SVG/1.1/DTD/svg11.dtd">
<svg width="55pt" height="81pt" viewBox="0 0 72 81" version="1.1" xmlns="http://www.w3.org/2000/svg">
<g id="#ffffffff">
<path fill="#ffffff" opacity="1.00" d=" M 0.00 21.06 C 11.47 14.29 23.02 7.66 34.55 1.01 C 46.00 7.75 57.57 14.28 69.00 21.06 L 69.00 60.99 C 57.62 67.70 46.04 74.10 34.78 81.00 L 34.22 81.00 C 24.25 74.80 13.90 69.23 3.83 63.18 C 2.62 62.42 1.35 61.76 0.00 61.28 L 0.00 21.06 M 4.03 23.27 C 3.97 35.09 3.98 46.91 4.03 58.73 C 14.13 64.58 24.30 70.32 34.30 76.35 C 44.63 70.67 54.69 64.52 64.96 58.74 C 65.03 46.92 65.02 35.09 64.96 23.27 C 54.85 17.42 44.69 11.66 34.68 5.65 C 24.37 11.35 14.29 17.47 4.03 23.27 Z" />
<path fill="#ffffff" opacity="1.00" d=" M 28.54 27.62 C 34.24 23.13 43.75 25.28 46.59 32.08 C 50.22 39.01 44.17 47.57 36.73 48.02 C 36.70 49.61 36.70 51.20 36.67 52.78 C 35.12 52.80 33.57 52.81 32.02 52.82 C 31.77 49.62 31.85 46.41 31.92 43.20 C 34.99 43.03 38.75 43.68 41.03 41.11 C 44.23 38.03 42.92 31.74 38.56 30.47 C 35.99 29.92 32.83 29.80 30.83 31.82 C 28.69 33.63 28.75 36.63 28.54 39.16 C 27.07 39.10 25.60 39.03 24.13 38.95 C 23.68 34.73 24.95 30.18 28.54 27.62 Z" />
<path fill="#ffffff" opacity="1.00" d=" M 32.21 60.67 C 30.24 58.79 32.29 56.54 34.08 55.55 C 35.75 56.15 36.90 57.39 37.55 59.03 C 36.76 61.11 33.90 62.96 32.21 60.67 Z" />
</g>
<g id="#000000ff">
<path fill="#000000" opacity="1.00" d=" M 4.03 23.27 C 14.29 17.47 24.37 11.35 34.68 5.65 C 44.69 11.66 54.85 17.42 64.96 23.27 C 65.02 35.09 65.03 46.92 64.96 58.74 C 54.69 64.52 44.63 70.67 34.30 76.35 C 24.30 70.32 14.13 64.58 4.03 58.73 C 3.98 46.91 3.97 35.09 4.03 23.27 M 28.54 27.62 C 24.95 30.18 23.68 34.73 24.13 38.95 C 25.60 39.03 27.07 39.10 28.54 39.16 C 28.75 36.63 28.69 33.63 30.83 31.82 C 32.83 29.80 35.99 29.92 38.56 30.47 C 42.92 31.74 44.23 38.03 41.03 41.11 C 38.75 43.68 34.99 43.03 31.92 43.20 C 31.85 46.41 31.77 49.62 32.02 52.82 C 33.57 52.81 35.12 52.80 36.67 52.78 C 36.70 51.20 36.70 49.61 36.73 48.02 C 44.17 47.57 50.22 39.01 46.59 32.08 C 43.75 25.28 34.24 23.13 28.54 27.62 M 32.21 60.67 C 33.90 62.96 36.76 61.11 37.55 59.03 C 36.90 57.39 35.75 56.15 34.08 55.55 C 32.29 56.54 30.24 58.79 32.21 60.67 Z" />
</g>
</svg>
